# xmcd
#
# Track frame offsets:
#	150
#	14088
#	31086
#	42902
#	56051
#	70680
#	80593
#	93082
#	106582
#	118603
#	130840
#	143151
#	154866
#	166895
#	180117
#	199899
#	211657
#
# Disc length: 2999
#
# Revision: 2
# Processed by: cddbd v1.5.1PL0 Copyright (c) Steve Scherf et al.
# Submitted via: dBpowerAMP V4.0
# Normalized: r0:DSETVAR1,TDELIM( - ),TSWAP
#
DISCID=d60bb511
DTITLE=Various Artist - Livin' The Blues
DYEAR=2002
DGENRE=Blues
TTITLE0=Muddy Waters - Forty Days And Forty Nights
TTITLE1=Howlin' Wolf - All My Life
TTITLE2=Jimmy Witherspoon - Fickle Woman
TTITLE3=Sonny Boy Williamson - Thinking My Blues Away
TTITLE4=Sonny Terry - Ham And Eggs
TTITLE5=Jimmy Rushing - She's Mine, She's Yours
TTITLE6=Ray Charles - Rockin' Chair Blues
TTITLE7=Lightnin' Hopkins - Stool Pigeon Blues
TTITLE8=Charles Brown - Trouble Blues
TTITLE9=Big Bill Broonzy - Lone Wolf Blues
TTITLE10=Leadbelly - Kansas City Papa
TTITLE11=Memphis Slim - Let The Good Times Roll Creole
TTITLE12=Brownie McGhee - Face In The Crowd
TTITLE13=Lonnie Johnson - Rambler's Blues
TTITLE14=Joe Turner - Nothin' From Nuthin' Blues
TTITLE15=Champion Jack Dupree - Everybody's Blues
TTITLE16=Mississippi John Hurt - Salty Dog Blues
EXTD=
EXTT0=
EXTT1=
EXTT2=
EXTT3=
EXTT4=
EXTT5=
EXTT6=
EXTT7=
EXTT8=
EXTT9=
EXTT10=
EXTT11=
EXTT12=
EXTT13=
EXTT14=
EXTT15=
EXTT16=
PLAYORDER=
